# xmcd CD database file
#
# Track frame offsets:
#	150
#	807
#	25329
#	48485
#	67660
#	100294
#	113766
#	142312
#	156351
#	178747
#	206384
#	222784
#	246840
#
# Disc length: 3713 seconds
#
# Revision: 0
# Processed by: cddbd v1.5.2PL0 Copyright (c) Steve Scherf et al.
# Submitted via: CDex 1.51
#
DISCID=ad0e7f0d
DTITLE=The Lamont Cranston Band - Live at the People's Fair 1987
DYEAR=1987
DGENRE=Blues
TTITLE0=Introduction
TTITLE1=Yonder Wall (James)
TTITLE2=Too Many Drivers at the Wheel (Parker)
TTITLE3=Homework (Hooker)
TTITLE4=I Need Your Love So Bad (Gamble/Huff)
TTITLE5=Cross Cut Saw (Ford)
TTITLE6=Weekend Love (Carter)
TTITLE7=Barefootin (Parker)
TTITLE8=House Party (Wesley)
TTITLE9=Part Time Love (Hammond)
TTITLE10=I Like Your Style (Dixon/Gaines/Gorman/Sawyer/Spencer)
TTITLE11=Maybe I'll Get Lucky Tonight (Liban)
TTITLE12=Upper Mississipi Shakedown (Hayes/McCabe)
EXTD=YEAR: 1987
EXTT0=
EXTT1=
EXTT2=
EXTT3=
EXTT4=
EXTT5=
EXTT6=
EXTT7=
EXTT8=
EXTT9=
EXTT10=
EXTT11=
EXTT12=
PLAYORDER=
